<?xml version="1.0" encoding="UTF-8"?>
<svg version="1.1" xmlns="http://www.w3.org/2000/svg" width="467" height="348">
<path d="M0 0 C2.9152949 2.17105798 4.59153239 3.63729858 6.625 6.6875 C6.49214936 10.40731784 6.37557131 12.797934 3.9375 15.6875 C0.773161 17.05586281 -1.05192521 16.49033501 -4.375 15.6875 C-6.65625 14.3046875 -6.65625 14.3046875 -8.875 12.5625 C-17.97368721 5.91293311 -28.22630909 0.7070714 -39.375 -1.3125 C-40.30183594 -1.54324219 -41.22867188 -1.77398437 -42.18359375 -2.01171875 C-45.46209494 -2.50735901 -47.27582972 -2.53380266 -50.375 -1.3125 C-63.57298025 13.5274337 -68.84844692 37.6696374 -70.98046875 56.73828125 C-71.375 59.6875 -71.375 59.6875 -72.375 61.6875 C-71.31998291 61.68226318 -70.26496582 61.67702637 -69.17797852 61.67163086 C-65.2774337 61.65358099 -61.3768926 61.64206805 -57.47631836 61.63256836 C-55.78555684 61.6275281 -54.09479971 61.62069595 -52.40405273 61.61206055 C-49.97899293 61.59998143 -47.55399056 61.59426877 -45.12890625 61.58984375 C-43.98827477 61.58210182 -43.98827477 61.58210182 -42.82460022 61.57420349 C-41.0076743 61.57400762 -39.19086873 61.62552723 -37.375 61.6875 C-36.375 62.6875 -36.375 62.6875 -36.2421875 65.59375 C-36.24605469 67.37265625 -36.24605469 67.37265625 -36.25 69.1875 C-36.24613281 70.96640625 -36.24613281 70.96640625 -36.2421875 72.78125 C-36.375 75.6875 -36.375 75.6875 -37.375 76.6875 C-39.89380517 76.84738491 -42.38842266 76.94684225 -44.91015625 77.00390625 C-45.66340683 77.02468735 -46.41665741 77.04546844 -47.19273376 77.06687927 C-49.6075599 77.13245425 -52.02249798 77.19129621 -54.4375 77.25 C-56.07097529 77.2931777 -57.7044391 77.33679173 -59.33789062 77.38085938 C-63.35014464 77.48814362 -67.36251164 77.58938821 -71.375 77.6875 C-69.87369047 90.50565457 -67.82593594 102.55340082 -63.375 114.6875 C-62.983125 115.76515625 -62.59125 116.8428125 -62.1875 117.953125 C-59.70892544 124.31262551 -56.56591552 129.86504433 -52.73046875 135.5078125 C-51.375 137.6875 -51.375 137.6875 -51.375 139.6875 C-33.47565921 140.67379021 -16.29325872 134.71524445 -2.6796875 123.00390625 C11.96129555 108.28847753 17.40873096 91.74937622 20.625 71.6875 C22.77076637 71.66064062 24.91662645 71.64116912 27.0625 71.625 C28.25746094 71.61339844 29.45242188 71.60179688 30.68359375 71.58984375 C33.625 71.6875 33.625 71.6875 34.625 72.6875 C34.7900529 95.23372675 24.65663759 116.03522377 9.5 132.3125 C-6.91315913 148.10309103 -28.19918461 155.24883725 -50.66796875 154.8984375 C-74.03098785 154.10647075 -93.58623941 146.20371578 -110.375 129.6875 C-111.1484375 128.92695313 -111.921875 128.16640625 -112.71875 127.3828125 C-129.0065199 110.36990215 -134.91890916 88.78506243 -134.72607422 65.69799805 C-134.11200729 41.04299613 -123.17232712 21.50920493 -106.00390625 4.3125 C-76.67528453 -23.46757049 -31.80627072 -22.48802734 0 0 Z M-71.0625 0.47265625 C-83.05766333 5.09814966 -92.17640194 10.6756755 -101.375 19.6875 C-102.00277344 20.27917969 -102.63054687 20.87085937 -103.27734375 21.48046875 C-113.35654808 31.83393715 -119.375 47.46213253 -119.375 61.6875 C-108.485 61.6875 -97.595 61.6875 -86.375 61.6875 C-85.2918691 59.52123821 -85.11463197 58.03524894 -84.8671875 55.63671875 C-82.55828824 35.50685505 -76.49665658 18.19957249 -66.375 0.6875 C-68.43465185 -0.62569761 -68.43465185 -0.62569761 -71.0625 0.47265625 Z M-120.375 76.6875 C-117.09117166 98.03238423 -109.30620082 114.43976722 -91.71484375 127.69140625 C-84.02784351 132.81238627 -75.54184594 137.12080269 -66.375 138.6875 C-67.53603613 136.28249659 -68.78469458 133.96961175 -70.109375 131.6484375 C-80.11341279 114.034363 -83.5204715 96.66919947 -86.375 76.6875 C-97.595 76.6875 -108.815 76.6875 -120.375 76.6875 Z " fill="#00AA84" transform="translate(276.375,55.3125)"/>
<path d="M0 0 C1.39605469 -0.14308594 1.39605469 -0.14308594 2.8203125 -0.2890625 C7.89061644 1.22813842 10.00049548 5.37286722 12.875 9.625 C13.46023437 10.48802734 14.04546875 11.35105469 14.6484375 12.24023438 C16.39805378 14.87245218 18.11039597 17.52429701 19.8125 20.1875 C21.813125 23.301875 23.81375 26.41625 25.875 29.625 C26.205 20.055 26.535 10.485 26.875 0.625 C30.505 0.625 34.135 0.625 37.875 0.625 C37.875 16.795 37.875 32.965 37.875 49.625 C27.875 49.625 27.875 49.625 25.01293945 47.51098633 C22.80730839 44.53362367 20.67753223 41.56327514 18.66796875 38.44921875 C17.99016357 37.40596436 17.3123584 36.36270996 16.61401367 35.2878418 C15.77201416 33.975979 14.93001465 32.66411621 14.0625 31.3125 C11.360625 27.125625 8.65875 22.93875 5.875 18.625 C5.545 28.855 5.215 39.085 4.875 49.625 C1.575 49.625 -1.725 49.625 -5.125 49.625 C-6.71181989 48.03818011 -6.25228536 46.41251654 -6.25439453 44.21289062 C-6.25912277 42.80638245 -6.25912277 42.80638245 -6.26394653 41.37145996 C-6.2619223 40.35169067 -6.25989807 39.33192139 -6.2578125 38.28125 C-6.25876923 37.24182251 -6.25972595 36.20239502 -6.26071167 35.13146973 C-6.26139363 32.92895446 -6.25953827 30.72643721 -6.25537109 28.52392578 C-6.25002308 25.13960281 -6.25531559 21.75541256 -6.26171875 18.37109375 C-6.26105797 16.23697887 -6.25977681 14.10286408 -6.2578125 11.96875 C-6.25983673 10.94898071 -6.26186096 9.92921143 -6.26394653 8.87854004 C-6.26079437 7.94086792 -6.25764221 7.0031958 -6.25439453 6.03710938 C-6.25359894 5.20739624 -6.25280334 4.37768311 -6.25198364 3.52282715 C-5.99655084 -0.29472994 -3.31251303 0.24369987 0 0 Z " fill="#00A984" transform="translate(202.125,229.375)"/>
<path d="M0 0 C5.47141802 4.85335043 8.70369001 9.5373077 9.3359375 16.92578125 C9.52533208 26.00231057 9.65360906 33.04935206 3.1640625 39.953125 C-3.58979818 46.31883277 -9.67435791 47.42262604 -18.8125 47.24609375 C-25.4664624 46.73236871 -30.56410594 44.4046828 -35.45703125 39.84765625 C-40.56928571 33.72589331 -41.63047531 26.59083409 -41.3125 18.8203125 C-40.44321417 10.97500785 -37.03029496 5.13313243 -31 0 C-21.31755124 -5.8721495 -9.67796377 -5.90882482 0 0 Z M-27.25 12.0625 C-30.10710389 16.85835296 -30.77394859 21.83384666 -29.44140625 27.28515625 C-27.47128138 31.96967538 -24.82608307 34.47833841 -20.15234375 36.4453125 C-15.47623226 37.65040838 -11.61536052 36.68204111 -7.1875 34.8125 C-3.70708976 31.92873152 -2.25037075 29.10928779 -1.71484375 24.59765625 C-1.53368848 19.35990598 -1.86776313 15.38513161 -5 11 C-8.41357866 7.91152407 -11.03705837 6.73568662 -15.5625 6.5625 C-20.76711504 6.82447727 -23.44851601 8.57780634 -27.25 12.0625 Z " fill="#00A883" transform="translate(367,233)"/>
<path d="M0 0 C29.68627451 0 29.68627451 0 37.4375 7.1875 C42.53451013 13.97388742 43.9568742 21.66339734 43 30 C41.48584383 37.27733975 38.59285619 42.45871148 32.4375 46.8125 C28.19738725 48.87819595 24.62531148 49.12071231 19.921875 49.09765625 C18.87612305 49.09515869 17.83037109 49.09266113 16.75292969 49.09008789 C14.77147949 49.07643188 14.77147949 49.07643188 12.75 49.0625 C8.5425 49.041875 4.335 49.02125 0 49 C0 32.83 0 16.66 0 0 Z M11 10 C11 19.57 11 29.14 11 39 C21.69676955 39.80824258 21.69676955 39.80824258 29 35 C32.08617379 30.13498992 31.61565312 24.54829554 31 19 C29.53784893 15.22577753 27.37652866 13.25101911 24 11 C19.71 10.67 15.42 10.34 11 10 Z " fill="#00A983" transform="translate(277,230)"/>
<path d="M0 0 C3.63 0 7.26 0 11 0 C15.46507834 8.40937317 18.93427019 17.10221253 22.35864258 25.97045898 C23.32087782 28.45916825 24.29376118 30.94353735 25.26757812 33.42773438 C25.8834486 35.01277382 26.49870576 36.59805174 27.11328125 38.18359375 C27.40382889 38.9241954 27.69437653 39.66479706 27.99372864 40.42784119 C29.14505367 43.42759828 30 45.75768264 30 49 C26.04 49 22.08 49 18 49 C17.01 45.7 16.02 42.4 15 39 C9.06 39.33 3.12 39.66 -3 40 C-4.32 42.97 -5.64 45.94 -7 49 C-10.63 49 -14.26 49 -18 49 C-17.3607322 43.45142563 -15.48369222 38.66331099 -13.4375 33.515625 C-12.91047485 32.17041779 -12.91047485 32.17041779 -12.37280273 30.79803467 C-11.25398406 27.94651297 -10.12699968 25.09829681 -9 22.25 C-8.24167291 20.31921245 -7.48385484 18.38822489 -6.7265625 16.45703125 C-5.34281112 12.93534864 -3.95839298 9.41394442 -2.56640625 5.89550781 C-2.28740479 5.18968567 -2.00840332 4.48386353 -1.72094727 3.75665283 C-1 2 -1 2 0 0 Z M5 16 C4.32942113 17.7902061 3.6636531 19.58221489 3 21.375 C2.62875 22.37273437 2.2575 23.37046875 1.875 24.3984375 C0.89373723 26.85848061 0.89373723 26.85848061 1 29 C4.3 29 7.6 29 11 29 C10.566875 27.411875 10.13375 25.82375 9.6875 24.1875 C9.32205078 22.84751953 9.32205078 22.84751953 8.94921875 21.48046875 C7.9799181 18.94752262 7.04990396 17.7283504 5 16 Z " fill="#00A983" transform="translate(163,230)"/>
<path d="M0 0 C2.21446437 1.53414439 4.03654305 3.13723315 6 5 C5.52797514 9.24822374 3.03344482 11.19989709 0 14 C-2.23695664 12.9229468 -4.18655616 11.86141543 -6.1875 10.375 C-10.1712005 8.42741309 -13.64327124 8.30200296 -18 9 C-22.08499621 11.07963443 -24.32994101 12.75306265 -26 17 C-26.67742823 22.21462195 -26.59172509 26.67453581 -24.4375 31.5 C-21.37403297 34.64201747 -19.26093166 35.88237858 -15 37 C-10.38878424 36.74295588 -7.01105736 35.83843781 -3.4375 32.875 C-2.963125 32.25625 -2.48875 31.6375 -2 31 C1.35915158 32.43963639 3.71624938 34.12416589 6 37 C5.75554763 39.46407984 5.34532135 40.65562995 3.58203125 42.4140625 C2.99808594 42.81367188 2.41414063 43.21328125 1.8125 43.625 C1.24144531 44.02976562 0.67039063 44.43453125 0.08203125 44.8515625 C-7.26301891 48.90305358 -15.8272886 49.45769979 -23.85546875 47.1953125 C-30.32269166 44.35795298 -33.83336528 40.23978945 -37 34 C-39.29858398 27.10424807 -39.52211864 16.06175104 -36.4375 9.3125 C-32.79840868 3.6176413 -27.58393334 -0.44912973 -21.1640625 -2.53125 C-13.84792552 -4.11597281 -6.72621834 -3.27983218 0 0 Z " fill="#00A983" transform="translate(137,232)"/>
<path d="M0 0 C7 0 7 0 9.125 2 C9.74375 2.99 10.3625 3.98 11 5 C11.44601563 5.67417969 11.89203125 6.34835937 12.3515625 7.04296875 C16 12.63791899 16 12.63791899 16 15 C16.66 15 17.32 15 18 15 C18.26425781 14.28457031 18.52851563 13.56914062 18.80078125 12.83203125 C20.04119792 9.9027085 21.459167 7.3571219 23.1875 4.6875 C23.73792969 3.80449219 24.28835937 2.92148437 24.85546875 2.01171875 C27 0 27 0 34 0 C34 10.89 34 21.78 34 33 C32.02 33 30.04 33 28 33 C25.94077598 30.94077598 26.58572421 26.78291876 26.4375 23.9375 C26.39431641 23.17888672 26.35113281 22.42027344 26.30664062 21.63867188 C26.20026367 19.75934562 26.09960066 17.87969756 26 16 C25.44570312 16.86625 24.89140625 17.7325 24.3203125 18.625 C23.58890777 19.75023805 22.85711693 20.8752252 22.125 22 C21.76019531 22.57234375 21.39539063 23.1446875 21.01953125 23.734375 C20.06525233 25.19181916 19.03722413 26.60037225 18 28 C17.34 28 16.68 28 16 28 C14.53057579 25.85192606 13.19193553 23.73756856 11.875 21.5 C10.59625 19.355 9.3175 17.21 8 15 C7.67 20.94 7.34 26.88 7 33 C4.69 33 2.38 33 0 33 C0 22.11 0 11.22 0 0 Z " fill="#00A983" transform="translate(212,295)"/>
<path d="M0 0 C1.12019531 -0.00128906 2.24039062 -0.00257812 3.39453125 -0.00390625 C4.57402344 -0.00003906 5.75351562 0.00382812 6.96875 0.0078125 C8.73798828 0.00201172 8.73798828 0.00201172 10.54296875 -0.00390625 C12.22326172 -0.00197266 12.22326172 -0.00197266 13.9375 0 C14.97326172 0.00112793 16.00902344 0.00225586 17.07617188 0.00341797 C19.46875 0.1328125 19.46875 0.1328125 20.46875 1.1328125 C20.56807153 2.82839976 20.59955007 4.52806997 20.6015625 6.2265625 C20.60349609 7.77150391 20.60349609 7.77150391 20.60546875 9.34765625 C20.60160156 10.43175781 20.59773438 11.51585938 20.59375 12.6328125 C20.59955078 14.25896484 20.59955078 14.25896484 20.60546875 15.91796875 C20.60417969 16.94792969 20.60289062 17.97789063 20.6015625 19.0390625 C20.60043457 19.99103516 20.59930664 20.94300781 20.59814453 21.92382812 C20.46875 24.1328125 20.46875 24.1328125 19.46875 25.1328125 C17.62715977 25.23240871 15.78178033 25.26361661 13.9375 25.265625 C12.81730469 25.26691406 11.69710938 25.26820312 10.54296875 25.26953125 C9.36347656 25.26566406 8.18398438 25.26179688 6.96875 25.2578125 C5.19951172 25.26361328 5.19951172 25.26361328 3.39453125 25.26953125 C1.71423828 25.26759766 1.71423828 25.26759766 0 25.265625 C-1.03576172 25.26449707 -2.07152344 25.26336914 -3.13867188 25.26220703 C-5.53125 25.1328125 -5.53125 25.1328125 -6.53125 24.1328125 C-6.63057153 22.43722524 -6.66205007 20.73755503 -6.6640625 19.0390625 C-6.66599609 17.49412109 -6.66599609 17.49412109 -6.66796875 15.91796875 C-6.66410156 14.83386719 -6.66023438 13.74976562 -6.65625 12.6328125 C-6.66011719 11.54871094 -6.66398437 10.46460937 -6.66796875 9.34765625 C-6.66667969 8.31769531 -6.66539062 7.28773437 -6.6640625 6.2265625 C-6.66293457 5.27458984 -6.66180664 4.32261719 -6.66064453 3.34179688 C-6.40622325 -1.00160642 -3.75009696 0.0040838 0 0 Z " fill="#00AA84" transform="translate(287.53125,86.8671875)"/>
<path d="M0 0 C1.9375 1.5625 1.9375 1.5625 3 3 C3 3.66 3 4.32 3 5 C2.34 5 1.68 5 1 5 C1 5.66 1 6.32 1 7 C-1.25 7.6875 -1.25 7.6875 -4 8 C-4.61875 7.505 -5.2375 7.01 -5.875 6.5 C-8.05170243 4.64993733 -8.05170243 4.64993733 -11.5625 5.0625 C-14.92442692 5.74391843 -14.92442692 5.74391843 -16.9375 7.5 C-18.56727143 11.33475631 -18.66150072 14.90320577 -18 19 C-16.62283334 21.71107713 -16.62283334 21.71107713 -14 23 C-9.26360181 23.62344572 -9.26360181 23.62344572 -5.125 21.625 C-3.93518188 19.98821489 -3.93518188 19.98821489 -3 18 C-4.134375 18.020625 -5.26875 18.04125 -6.4375 18.0625 C-10 18 -10 18 -11 17 C-11 15.02 -11 13.04 -11 11 C-5.72 11 -0.44 11 5 11 C5.28404647 17.15434014 5.21599987 21.53280023 2 27 C-1.8202415 30.92077417 -5.2292419 31.31390262 -10.5 31.5 C-16.03344896 31.32353466 -18.98308458 30.80549882 -23 27 C-27.11823814 22.31372902 -27.35734493 17.89457007 -27.26953125 11.859375 C-26.86418946 7.55922737 -25.78847425 4.32893695 -23 1 C-15.71957349 -4.68581982 -7.88199552 -4.17282116 0 0 Z " fill="#00A782" transform="translate(180,297)"/>
<path d="M0 0 C3.04263267 -0.10845027 6.08136204 -0.18752063 9.125 -0.25 C9.9809375 -0.28351563 10.836875 -0.31703125 11.71875 -0.3515625 C17.35499562 -0.43827397 20.5330837 0.21815068 25 4 C28.92477887 8.46612768 29.34411829 12.59794119 29.28515625 18.359375 C28.73772546 23.42873408 26.64098925 27.41029167 23 30.9375 C18.43779834 33.36116963 13.80445883 33.12054591 8.75 33.0625 C8.00492187 33.05798828 7.25984375 33.05347656 6.4921875 33.04882812 C4.6614236 33.03709246 2.83070127 33.0191585 1 33 C-0.48679725 30.02640551 -0.11112605 27.33700821 -0.09765625 24.0234375 C-0.09553383 22.99556625 -0.09553383 22.99556625 -0.09336853 21.94692993 C-0.08776675 19.75624239 -0.07521406 17.5656567 -0.0625 15.375 C-0.05748522 13.89062648 -0.05292228 12.40625135 -0.04882812 10.921875 C-0.03779677 7.28121685 -0.02053099 3.64061836 0 0 Z M8 7 C7.97316013 9.97922593 7.95323963 12.95821295 7.9375 15.9375 C7.92912109 16.78763672 7.92074219 17.63777344 7.91210938 18.51367188 C7.90888672 19.32255859 7.90566406 20.13144531 7.90234375 20.96484375 C7.89710693 21.7137085 7.89187012 22.46257324 7.88647461 23.23413086 C7.80658248 25.02667739 7.80658248 25.02667739 9 26 C13.14333495 25.79622943 15.93994841 25.63603095 19.5 23.5 C21.77392977 19.71011705 21.86421959 16.29815406 21 12 C19.1866503 8.7698823 19.1866503 8.7698823 16 7 C13.30709454 6.75059731 10.71169452 6.91387036 8 7 Z " fill="#00A983" transform="translate(290,295)"/>
<path d="M0 0 C2.84625 -0.0825 5.6925 -0.165 8.625 -0.25 C9.51010254 -0.28641602 10.39520508 -0.32283203 11.30712891 -0.36035156 C16.71384013 -0.4357997 19.71097323 0.41709349 24 4 C27.60938411 7.7993517 28.30931409 10.84618609 28.5 15.9375 C28.27440683 22.4313605 26.82449222 26.35203855 22 30.875 C15.16036449 34.72229497 7.90588061 33 0 33 C0 22.11 0 11.22 0 0 Z M7 7 C6.97316013 9.97922593 6.95323963 12.95821295 6.9375 15.9375 C6.92912109 16.78763672 6.92074219 17.63777344 6.91210938 18.51367188 C6.90888672 19.32255859 6.90566406 20.13144531 6.90234375 20.96484375 C6.89710693 21.7137085 6.89187012 22.46257324 6.88647461 23.23413086 C6.80658248 25.02667739 6.80658248 25.02667739 8 26 C13.58716919 25.76356311 13.58716919 25.76356311 18.4375 23.3125 C20.38587602 20.42890349 20.85823946 18.47313326 21 15 C20.25137024 12.07353822 19.38501251 10.42943703 17.375 8.1875 C14.83501508 6.91750754 13.63304272 6.87218275 10.8515625 6.92578125 C9.58054687 6.95027344 8.30953125 6.97476562 7 7 Z " fill="#00A983" transform="translate(99,295)"/>
<path d="M0 0 C0.91644287 0.00523682 1.83288574 0.01047363 2.77709961 0.01586914 C3.76645508 0.0190918 4.75581055 0.02231445 5.77514648 0.02563477 C6.81606445 0.03401367 7.85698242 0.04239258 8.92944336 0.05102539 C10.49662109 0.05779297 10.49662109 0.05779297 12.09545898 0.06469727 C14.68600996 0.07652627 17.27644895 0.0930085 19.86694336 0.11352539 C19.90948692 2.11307285 19.90775119 4.11394175 19.86694336 6.11352539 C18.86694336 7.11352539 18.86694336 7.11352539 15.70678711 7.21118164 C13.77512695 7.1937793 13.77512695 7.1937793 11.80444336 7.17602539 C10.5140918 7.16700195 9.22374023 7.15797852 7.89428711 7.14868164 C6.89526367 7.13708008 5.89624023 7.12547852 4.86694336 7.11352539 C5.19694336 8.76352539 5.52694336 10.41352539 5.86694336 12.11352539 C10.15694336 12.11352539 14.44694336 12.11352539 18.86694336 12.11352539 C18.86694336 14.42352539 18.86694336 16.73352539 18.86694336 19.11352539 C16.10242303 20.49578555 13.82080706 20.20877926 10.74194336 20.17602539 C9.64624023 20.16700195 8.55053711 20.15797852 7.42163086 20.14868164 C6.57858398 20.13708008 5.73553711 20.12547852 4.86694336 20.11352539 C4.86694336 22.09352539 4.86694336 24.07352539 4.86694336 26.11352539 C9.81694336 26.11352539 14.76694336 26.11352539 19.86694336 26.11352539 C19.86694336 28.09352539 19.86694336 30.07352539 19.86694336 32.11352539 C18.24493821 33.73553054 16.44671305 33.24343289 14.21069336 33.24633789 C12.80110352 33.24827148 12.80110352 33.24827148 11.36303711 33.25024414 C10.37432617 33.24637695 9.38561523 33.24250977 8.36694336 33.23852539 C7.37823242 33.24239258 6.38952148 33.24625977 5.37084961 33.25024414 C4.43112305 33.24895508 3.49139648 33.24766602 2.52319336 33.24633789 C1.65500977 33.24520996 0.78682617 33.24408203 -0.10766602 33.24291992 C-2.13305664 33.11352539 -2.13305664 33.11352539 -3.13305664 32.11352539 C-3.23326594 29.83404748 -3.26386967 27.55145404 -3.26586914 25.26977539 C-3.26682587 24.58548462 -3.26778259 23.90119385 -3.26876831 23.19616699 C-3.26944994 21.74690662 -3.26759687 20.29764321 -3.26342773 18.84838867 C-3.25807916 16.62289611 -3.26337324 14.39760538 -3.26977539 12.17211914 C-3.26911461 10.76717078 -3.26783344 9.36222254 -3.26586914 7.95727539 C-3.26474121 6.67014648 -3.26361328 5.38301758 -3.26245117 4.05688477 C-3.09133723 0.16452693 -3.09133723 0.16452693 0 0 Z " fill="#00A883" transform="translate(260.133056640625,294.886474609375)"/>
<path d="M0 0 C2.64 0 5.28 0 8 0 C11.06905974 5.95148747 13.74922069 11.97723138 16.25 18.1875 C16.61351562 19.06341797 16.97703125 19.93933594 17.3515625 20.84179688 C17.69445312 21.69193359 18.03734375 22.54207031 18.390625 23.41796875 C18.70032227 24.17875732 19.01001953 24.9395459 19.32910156 25.72338867 C20.07282958 28.24713821 20.11892704 30.38273911 20 33 C14.25 33.125 14.25 33.125 12 32 C10.95191959 30.02477154 9.9479589 28.02518491 9 26 C5.5753227 26.01285057 2.3266373 26.14825228 -1 27 C-3.23886732 29.88679844 -3.23886732 29.88679844 -4 33 C-6.64 33 -9.28 33 -12 33 C-9.88804509 25.43137471 -7.22216627 18.17004844 -4.3125 10.875 C-3.68891602 9.2971875 -3.68891602 9.2971875 -3.05273438 7.6875 C-2.03880049 5.12352925 -1.02117166 2.56109468 0 0 Z M4 11 C3.34 13.31 2.68 15.62 2 18 C3.65 18 5.3 18 7 18 C6.34 15.69 5.68 13.38 5 11 C4.67 11 4.34 11 4 11 Z " fill="#00A883" transform="translate(356,295)"/>
<path d="M0 0 C5.1665625 -0.0309375 5.1665625 -0.0309375 10.4375 -0.0625 C11.52474365 -0.071604 12.6119873 -0.08070801 13.73217773 -0.09008789 C15.00750366 -0.09383423 15.00750366 -0.09383423 16.30859375 -0.09765625 C17.62041626 -0.10551147 17.62041626 -0.10551147 18.95874023 -0.11352539 C21 0 21 0 22 1 C22.09880797 2.47652664 22.13079245 3.95767236 22.1328125 5.4375 C22.13474609 6.77941406 22.13474609 6.77941406 22.13671875 8.1484375 C22.13285156 9.08945313 22.12898438 10.03046875 22.125 11 C22.13080078 12.41152344 22.13080078 12.41152344 22.13671875 13.8515625 C22.13542969 14.74617188 22.13414062 15.64078125 22.1328125 16.5625 C22.13168457 17.38878906 22.13055664 18.21507813 22.12939453 19.06640625 C22 21 22 21 21 22 C19.43827255 22.08685603 17.87270656 22.10702219 16.30859375 22.09765625 C15.45837646 22.09515869 14.60815918 22.09266113 13.73217773 22.09008789 C12.64493408 22.08098389 11.55769043 22.07187988 10.4375 22.0625 C6.993125 22.041875 3.54875 22.02125 0 22 C0 14.74 0 7.48 0 0 Z " fill="#00AA84" transform="translate(330,69)"/>
<path d="M0 0 C3.9290625 -0.0309375 3.9290625 -0.0309375 7.9375 -0.0625 C8.7637085 -0.071604 9.58991699 -0.08070801 10.44116211 -0.09008789 C12.29433759 -0.09723945 14.14749308 -0.0502852 16 0 C17.75559942 1.75559942 17.13221919 4.03582442 17.13671875 6.37109375 C17.13285156 7.07363281 17.12898438 7.77617188 17.125 8.5 C17.13080078 9.55380859 17.13080078 9.55380859 17.13671875 10.62890625 C17.12661378 15.87338622 17.12661378 15.87338622 16 17 C13.3013095 17.07325436 10.63497444 17.09222351 7.9375 17.0625 C5.318125 17.041875 2.69875 17.02125 0 17 C0 11.39 0 5.78 0 0 Z " fill="#00AA84" transform="translate(316,27)"/>
<path d="M0 0 C2.31 0 4.62 0 7 0 C8.455261 2.910522 8.12985887 5.47556411 8.1328125 8.72265625 C8.13376923 9.38333603 8.13472595 10.04401581 8.13571167 10.72471619 C8.13639216 12.12092179 8.134547 13.51713056 8.13037109 14.91333008 C8.12501243 17.05752614 8.13032479 19.20151353 8.13671875 21.34570312 C8.13605811 22.7005213 8.13477725 24.05533934 8.1328125 25.41015625 C8.13168457 26.64902588 8.13055664 27.88789551 8.12939453 29.16430664 C8 32 8 32 7 33 C5.00041636 33.04080783 2.99954746 33.04254356 1 33 C-0.48679725 30.02640551 -0.11112605 27.33700821 -0.09765625 24.0234375 C-0.09553383 22.99556625 -0.09553383 22.99556625 -0.09336853 21.94692993 C-0.08776675 19.75624239 -0.07521406 17.5656567 -0.0625 15.375 C-0.05748522 13.89062648 -0.05292228 12.40625135 -0.04882812 10.921875 C-0.03779677 7.28121685 -0.02053099 3.64061836 0 0 Z " fill="#00A981" transform="translate(193,295)"/>
<path d="M0 0 C3 0.125 3 0.125 4 1.125 C4.1002093 3.40447792 4.13081303 5.68707135 4.1328125 7.96875 C4.13376923 8.65304077 4.13472595 9.33733154 4.13571167 10.0423584 C4.1363933 11.49161877 4.13454023 12.94088218 4.13037109 14.39013672 C4.12502252 16.61562928 4.1303166 18.84092001 4.13671875 21.06640625 C4.13605797 22.47135461 4.1347768 23.87630285 4.1328125 25.28125 C4.13168457 26.56837891 4.13055664 27.85550781 4.12939453 29.18164062 C4 32.125 4 32.125 3 33.125 C1.00041636 33.16580783 -1.00045254 33.16754356 -3 33.125 C-4.13324094 29.72527717 -4.12942456 27.10642899 -4.1328125 23.5234375 C-4.13410156 22.22921875 -4.13539063 20.935 -4.13671875 19.6015625 C-4.13462402 18.92899414 -4.1325293 18.25642578 -4.13037109 17.56347656 C-4.1250015 15.50057685 -4.1303336 13.43789311 -4.13671875 11.375 C-4.13542969 10.08335937 -4.13414062 8.79171875 -4.1328125 7.4609375 C-4.13168457 6.27032715 -4.13055664 5.0797168 -4.12939453 3.85302734 C-3.94799528 0.02858348 -3.8632451 0.16096855 0 0 Z " fill="#009A78" transform="translate(140,294.875)"/>
<path d="M0 0 C5.28 0 10.56 0 16 0 C16 5.28 16 10.56 16 16 C10.72 16 5.44 16 0 16 C0 10.72 0 5.44 0 0 Z " fill="#00AA84" transform="translate(298,53)"/>
<path d="M0 0 C2.31 0 4.62 0 7 0 C7 10.89 7 21.78 7 33 C5.02 33 3.04 33 1 33 C0 32 0 32 -0.11352539 28.94897461 C-0.11336634 27.60008729 -0.10767612 26.25119386 -0.09765625 24.90234375 C-0.0962413 24.19348526 -0.09482635 23.48462677 -0.09336853 22.75428772 C-0.08775443 20.48198288 -0.07519963 18.20977525 -0.0625 15.9375 C-0.05748681 14.40039204 -0.05292359 12.86328255 -0.04882812 11.32617188 C-0.03778042 7.55074358 -0.02050641 3.77538829 0 0 Z " fill="#00AA83" transform="translate(328,295)"/>
<path d="M0 0 C0.87454834 0.00523682 1.74909668 0.01047363 2.65014648 0.01586914 C3.59438477 0.0190918 4.53862305 0.02231445 5.51147461 0.02563477 C6.50469727 0.03401367 7.49791992 0.04239258 8.52124023 0.05102539 C9.51833008 0.05553711 10.51541992 0.06004883 11.54272461 0.06469727 C14.01478872 0.07652532 16.48673541 0.0930069 18.95874023 0.11352539 C19.99469546 4.14224014 19.82862877 5.7640827 18.95874023 10.11352539 C12.02874023 10.11352539 5.09874023 10.11352539 -2.04125977 10.11352539 C-3.11319456 6.89772101 -3.18762031 4.4798179 -3.04125977 1.11352539 C-2.04125977 0.11352539 -2.04125977 0.11352539 0 0 Z " fill="#00AA84" transform="translate(250.041259765625,251.886474609375)"/>
</svg>
